<?xml version="1.0" standalone="no"?>
<!DOCTYPE svg PUBLIC "-//W3C//DTD SVG 20010904//EN"
 "http://www.w3.org/TR/2001/REC-SVG-20010904/DTD/svg10.dtd">
<svg version="1.0" xmlns="http://www.w3.org/2000/svg"
 width="1080.000000pt" height="1080.000000pt" viewBox="0 0 1080.000000 1080.000000"
 preserveAspectRatio="xMidYMid meet">
<metadata>
Created by potrace 1.14, written by Peter Selinger 2001-2017
</metadata>
<g transform="translate(0.000000,1080.000000) scale(0.100000,-0.100000)"
fill="#000000" stroke="none">
<path d="M2810 8645 c-1185 -1185 -2156 -2163 -2158 -2173 -2 -11 56 -75 162
-180 178 -178 169 -173 226 -120 20 18 195 167 295 250 22 18 305 258 345 292
68 58 411 348 469 396 36 30 71 59 77 65 6 5 33 28 60 51 51 42 305 257 384
324 86 73 116 99 350 296 129 108 237 200 240 203 3 3 26 23 52 44 26 21 53
43 60 50 7 7 54 46 103 87 50 41 92 77 95 80 3 3 104 89 224 190 121 102 254
214 296 250 42 36 100 85 130 110 29 25 58 50 64 55 26 23 388 329 590 498 44
37 85 67 91 67 9 0 153 -116 280 -227 22 -19 60 -52 84 -72 60 -49 577 -486
622 -525 19 -17 58 -49 85 -72 69 -58 328 -277 392 -331 29 -25 65 -55 80 -67
15 -11 29 -23 32 -27 3 -3 34 -30 70 -60 36 -29 67 -56 70 -59 3 -3 46 -39 95
-80 50 -41 92 -77 95 -80 11 -12 711 -603 764 -645 21 -16 47 -39 59 -51 12
-11 65 -56 117 -100 52 -43 97 -81 100 -84 3 -3 48 -41 100 -85 52 -44 106
-89 120 -101 14 -12 120 -101 235 -199 249 -210 304 -257 319 -270 6 -6 66
-56 134 -113 98 -82 126 -100 140 -93 9 5 89 82 177 170 l160 161 -2166 2165
-2165 2166 -2154 -2156z"/>
<path d="M5593 8257 c-50 -41 -143 -93 -353 -195 -113 -55 -239 -123 -280
-150 -265 -176 -402 -469 -404 -862 0 -196 27 -365 90 -559 40 -124 133 -317
199 -416 40 -59 186 -249 204 -265 3 -3 31 -34 61 -70 30 -36 57 -67 60 -70
13 -11 140 -179 177 -235 246 -366 276 -842 78 -1230 -112 -219 -304 -416
-512 -526 -34 -18 -61 -35 -59 -37 15 -15 316 91 426 151 78 42 211 125 220
136 3 4 26 22 52 39 62 43 211 191 287 286 191 241 322 544 356 826 3 25 7 61
10 80 6 43 7 316 1 350 -3 14 -7 45 -10 70 -2 25 -11 77 -20 115 -8 39 -17 82
-19 95 -29 154 -195 512 -289 625 -57 68 -277 376 -319 447 -113 188 -172 395
-173 598 0 51 12 194 18 225 36 170 80 294 158 450 33 66 64 126 70 133 17 19
2 14 -29 -11z"/>
<path d="M4464 6094 c-63 -99 -108 -220 -128 -349 -12 -75 -8 -230 9 -310 31
-149 72 -233 210 -425 105 -147 144 -216 188 -326 30 -78 40 -110 54 -174 13
-64 20 -150 18 -235 -5 -212 -91 -407 -255 -577 -28 -28 -50 -54 -50 -56 0
-20 169 40 190 67 3 4 19 17 35 30 47 35 292 279 350 347 155 182 195 372 125
580 -58 171 -184 393 -436 766 -156 230 -199 305 -240 414 -34 91 -47 190 -34
262 4 23 6 42 4 42 -3 0 -20 -25 -40 -56z"/>
<path d="M1794 5935 c-25 -54 -121 -356 -163 -512 -67 -251 -131 -553 -156
-729 -3 -21 -7 -48 -10 -59 -8 -40 -43 -336 -50 -430 -22 -289 -22 -798 0
-936 2 -13 6 -55 10 -94 6 -61 39 -293 50 -350 172 -884 574 -1605 1195 -2145
41 -36 81 -71 88 -77 7 -7 22 -19 32 -26 18 -13 20 -28 23 -163 3 -140 4 -152
31 -207 37 -74 100 -138 173 -174 l58 -28 675 0 675 0 1 295 c1 162 4 311 8
330 4 19 21 64 38 100 57 118 175 207 305 231 56 11 408 8 449 -4 94 -25 198
-101 250 -183 62 -97 70 -152 70 -482 l-1 -293 655 3 655 3 56 26 c80 38 134
91 171 168 32 64 33 71 36 211 l3 145 33 30 c18 17 60 52 92 80 73 61 303 291
366 365 45 53 95 114 111 135 4 6 21 28 38 50 221 286 411 644 540 1019 36
105 53 140 66 142 10 1 74 5 143 8 134 7 144 8 235 25 33 6 74 14 90 17 110
19 267 71 403 132 497 223 841 634 927 1110 13 75 15 410 2 457 -3 11 -14 58
-25 105 -126 525 -593 988 -1197 1185 -200 65 -446 107 -633 108 -40 0 -30
-20 -113 235 -38 118 -68 196 -78 201 -9 4 -137 7 -286 6 -302 -1 -284 4 -236
-75 113 -186 246 -516 301 -745 33 -137 42 -179 47 -220 2 -22 8 -58 13 -80 4
-22 8 -47 8 -55 0 -8 3 -35 6 -60 23 -186 24 -466 1 -650 -3 -19 -7 -55 -10
-79 -26 -219 -92 -472 -185 -706 -299 -754 -894 -1358 -1645 -1671 -225 -93
-529 -176 -730 -199 -33 -4 -68 -9 -77 -11 -46 -8 -247 -18 -368 -17 -198 0
-284 7 -500 38 -19 3 -78 14 -130 26 -52 11 -105 22 -117 25 -129 27 -462 151
-593 220 -35 19 -67 34 -71 34 -14 0 -249 145 -341 211 -209 149 -456 380
-588 549 -19 25 -40 51 -47 58 -55 58 -219 316 -302 477 -123 237 -246 592
-276 800 -4 22 -8 47 -10 55 -7 24 -25 157 -33 240 -4 41 -7 172 -6 290 0 188
3 243 18 360 2 14 7 50 10 80 30 230 142 596 249 815 19 39 44 90 56 115 12
25 27 54 34 65 34 55 57 95 57 102 0 5 -126 8 -281 8 l-280 0 -15 -30z m6773
-895 c348 -64 652 -237 852 -486 339 -420 317 -953 -54 -1329 -209 -212 -520
-356 -825 -381 -30 -2 -61 -7 -68 -9 -13 -5 -13 8 3 95 2 9 7 43 11 75 4 33 9
62 9 65 1 3 5 37 9 75 4 39 9 84 11 100 24 186 25 784 1 980 -2 17 -7 62 -10
100 -4 39 -8 81 -10 95 -3 14 -7 48 -10 75 -3 28 -8 70 -12 95 -9 68 -54 329
-65 380 -20 86 -20 88 -2 92 10 2 25 3 33 1 8 -1 65 -11 127 -23z"/>
<path d="M6807 3904 c-1 -1 -36 -4 -77 -8 -41 -3 -86 -8 -100 -11 -13 -3 -42
-7 -65 -11 -22 -3 -58 -10 -80 -15 -22 -5 -48 -12 -59 -14 -133 -31 -324 -104
-491 -187 -182 -91 -271 -127 -468 -192 -197 -65 -552 -157 -692 -179 -16 -3
-84 -14 -150 -25 -66 -12 -145 -24 -175 -27 -30 -3 -62 -8 -70 -10 -8 -2 -46
-6 -85 -10 -38 -3 -101 -8 -140 -12 -160 -16 -648 -8 -820 12 -92 11 -141 17
-159 21 -11 2 -38 6 -61 9 -215 31 -579 139 -792 235 -35 16 -64 26 -67 22 -2
-4 20 -65 49 -137 389 -974 1248 -1643 2285 -1781 179 -24 628 -24 755 0 11 2
42 7 68 10 27 4 59 9 70 12 153 29 148 28 222 48 33 9 68 19 79 21 91 21 342
121 491 197 176 89 440 268 575 388 437 390 712 829 878 1402 l20 67 -82 31
c-82 32 -294 94 -357 104 -19 3 -43 7 -54 10 -11 2 -41 7 -67 10 -27 3 -69 9
-95 12 -43 6 -281 12 -286 8z"/>
</g>
</svg>
